<svg width="80" height="54" viewBox="0 0 80 54" fill="none" xmlns="http://www.w3.org/2000/svg">
<path d="M18.6439 27.1929L18.121 26.6683L39.0382 5.62896L34.5954 1.16143L8.84109 27.0659L8.31976 26.5396L34.5954 0.112183L39.5595 5.10434L44.6358 0L71.512 27.0329H60.3184L39.5595 6.15524L18.6439 27.1929ZM60.6187 26.2855H69.7105L44.6358 1.04924L40.0825 5.62896L60.6187 26.2855Z" fill="#386099"/>
<path d="M39.1651 27.5427H35.6396V23.9957H39.1651V27.5427ZM36.382 26.7954H38.4211V24.7431H36.382V26.7954Z" fill="#386099"/>
<path d="M43.56 27.5427H40.018V23.9957H43.56V27.5427ZM40.762 26.7954H42.8176V24.7431H40.762V26.7954Z" fill="#386099"/>
<path d="M39.1651 23.1048H35.6396V19.5429H39.1651V23.1048ZM36.382 22.3574H38.4211V20.2903H36.382V22.3574Z" fill="#386099"/>
<path d="M43.56 23.1048H40.018V19.5429H43.56V23.1048ZM40.762 22.3574H42.8176V20.2903H40.762V22.3574Z" fill="#386099"/>
<path d="M5.71805 41.5193L3.90662 38.3105C4.88163 37.9558 5.52338 37.0385 5.52338 35.9844C5.52338 34.6316 4.50383 33.4965 3.00255 33.4965H0V41.5193H0.824878V38.4705H3.00255C3.01245 38.4705 3.03555 38.4705 3.0471 38.4705L4.76614 41.5193H5.71805ZM0.824878 34.323H3.00255C4.0221 34.323 4.66386 35.0902 4.66386 35.9844C4.66386 36.8785 4.0221 37.6457 3.00255 37.6457H0.824878V34.323Z" fill="#545454"/>
<path d="M8.69597 40.6944V37.9212H12.7758V37.0963H8.69597V34.323H13.1305V33.4965H7.87109V41.5193H13.1998V40.6944H8.69597Z" fill="#545454"/>
<path d="M21.1631 41.5193H22.0803L19.0431 33.4965H18.2859L15.2603 41.5193H16.1775L17.0486 39.1931H20.292L21.1631 41.5193ZM17.3587 38.3682L18.6653 34.8147L19.9819 38.3682H17.3587Z" fill="#545454"/>
<path d="M25.0807 40.6944V33.4965H24.2558V41.5193H29.0681V40.6944H25.0807Z" fill="#545454"/>
<path d="M36.3097 40.6944V37.9212H40.3896V37.0963H36.3097V34.323H40.7443V33.4965H35.4849V41.5193H40.8136V40.6944H36.3097Z" fill="#545454"/>
<path d="M46.0717 37.0733C44.5605 36.8093 43.9072 36.4876 43.9072 35.6859C43.9072 34.7356 44.6859 34.2423 45.9347 34.2423C46.8174 34.2423 47.6884 34.5508 47.8947 35.4104L48.6849 35.1365C48.3879 34.1615 47.3453 33.4174 45.9347 33.4174C43.9633 33.4174 43.0691 34.5063 43.0807 35.6859C43.0922 37.164 44.3642 37.5996 45.9347 37.8866C47.5053 38.1737 48.1817 38.4129 48.1817 39.284C48.1817 40.4075 46.9213 40.7853 46.0717 40.7853C44.8575 40.7853 43.9864 40.3398 43.6663 39.571L42.8745 39.8465C43.2077 40.7523 44.285 41.6118 46.0948 41.6118C47.5631 41.6118 49.0181 40.8314 49.0181 39.284C49.0181 37.7035 47.5515 37.3142 46.0717 37.0733Z" fill="#545454"/>
<path d="M56.5457 33.4965H50.7353V34.323H53.233V41.5193H54.0579V34.323H56.5457V33.4965Z" fill="#545454"/>
<path d="M64.1654 41.5193H65.0827L62.0455 33.4965H61.2882L58.2626 41.5193H59.1798L60.0509 39.1931H63.2943L64.1654 41.5193ZM60.3611 38.3682L61.6677 34.8147L62.9842 38.3682H60.3611Z" fill="#545454"/>
<path d="M72.6097 33.4965H66.7993V34.323H69.297V41.5193H70.1219V34.323H72.6097V33.4965Z" fill="#545454"/>
<path d="M75.4961 40.6944V37.9212H79.576V37.0963H75.4961V34.323H79.9307V33.4965H74.6713V41.5193H80V40.6944H75.4961Z" fill="#545454"/>
<path d="M14.6703 47.9262C14.1473 47.9262 13.7464 48.139 13.466 48.4805V46.3276H12.9199V51.6332H13.466V51.1399C13.7464 51.4814 14.1473 51.686 14.6703 51.686C15.7163 51.686 16.3828 50.8529 16.3828 49.8135C16.3828 48.7676 15.7163 47.9262 14.6703 47.9262ZM14.6703 51.1564C13.9197 51.1564 13.4874 50.5641 13.4874 49.8135C13.4874 49.0629 13.9197 48.4574 14.6703 48.4574C15.421 48.4574 15.8301 49.0629 15.8301 49.8135C15.8301 50.5641 15.421 51.1564 14.6703 51.1564Z" fill="#545454"/>
<path d="M19.392 47.9264C18.9515 47.9264 18.5885 48.1095 18.3378 48.4048V47.9792H17.7851V51.6334H18.3378V49.6619C18.3378 48.8585 18.7469 48.4724 19.3078 48.4724C19.3986 48.4724 19.4827 48.4807 19.5586 48.4955L19.6642 47.9412C19.5734 47.9346 19.4827 47.9264 19.392 47.9264Z" fill="#545454"/>
<path d="M22.5223 47.9264C21.4829 47.9264 20.7636 48.7677 20.7636 49.8137C20.7636 50.8596 21.4829 51.6944 22.5223 51.6944C23.5682 51.6944 24.3023 50.8596 24.3023 49.8137C24.3023 48.7677 23.5682 47.9264 22.5223 47.9264ZM22.5223 51.1566C21.7716 51.1566 21.3163 50.5643 21.3163 49.8137C21.3163 49.063 21.7716 48.4576 22.5223 48.4576C23.2729 48.4576 23.7497 49.063 23.7497 49.8137C23.7497 50.5643 23.2729 51.1566 22.5223 51.1566Z" fill="#545454"/>
<path d="M28.1216 51.6332H28.7964L27.2126 49.4506L28.5687 47.979H27.8263L26.2887 49.6469V46.3276H25.7427V51.6332H26.2887V50.4503L26.8332 49.8597L28.1216 51.6332Z" fill="#545454"/>
<path d="M31.631 47.9264C30.5933 47.9264 29.8954 48.7677 29.8954 49.8137C29.8954 50.853 30.6378 51.6862 31.6772 51.6862C32.3437 51.6862 32.8584 51.3612 33.162 50.8448L32.6852 50.6105C32.4641 50.9504 32.1309 51.1566 31.6772 51.1566C30.9942 51.1566 30.5389 50.6633 30.463 50.0034H33.2758C33.2758 49.9424 33.284 49.8747 33.284 49.8137C33.284 48.7677 32.6769 47.9264 31.631 47.9264ZM31.631 48.4576C32.2595 48.4576 32.6159 48.8816 32.7231 49.4573H30.4861C30.5999 48.8816 31.009 48.4576 31.631 48.4576Z" fill="#545454"/>
<path d="M36.2919 47.9264C35.8514 47.9264 35.4884 48.1095 35.2377 48.4048V47.9792H34.685V51.6334H35.2377V49.6619C35.2377 48.8585 35.6468 48.4724 36.2077 48.4724C36.2985 48.4724 36.3826 48.4807 36.4585 48.4955L36.5641 47.9412C36.4733 47.9346 36.3826 47.9264 36.2919 47.9264Z" fill="#545454"/>
<path d="M42.4452 47.9264C41.9304 47.9264 41.5213 48.1392 41.2408 48.4807V47.9792H40.6948V53.2864H41.2408V51.1401C41.5213 51.4816 41.9304 51.6944 42.4452 51.6944C43.4911 51.6944 44.1576 50.8596 44.1576 49.8137C44.1576 48.7677 43.4911 47.9264 42.4452 47.9264ZM42.4452 51.1566C41.7028 51.1566 41.2705 50.5643 41.2705 49.8137C41.2705 49.063 41.7028 48.4576 42.4452 48.4576C43.1958 48.4576 43.6049 49.063 43.6049 49.8137C43.6049 50.5643 43.1958 51.1566 42.4452 51.1566Z" fill="#545454"/>
<path d="M48.4025 51.6334C48.4025 51.6334 48.3943 49.9275 48.3943 49.1851C48.3943 48.4114 47.901 47.9264 47.053 47.9264C46.1588 47.9264 45.7332 48.4427 45.6359 48.9344L46.1209 49.0482C46.2116 48.738 46.3931 48.4196 47.0382 48.4196C47.7344 48.4196 47.863 48.8205 47.8713 49.0713C47.8795 49.3138 47.6585 49.4194 47.091 49.5118C45.9691 49.6932 45.4082 50.0183 45.4082 50.7392C45.4082 51.3529 45.9081 51.6862 46.5828 51.6862C47.1058 51.6862 47.5298 51.475 47.8564 51.1945V51.6334H48.4025ZM46.629 51.1714C46.4459 51.1714 45.984 51.1021 45.984 50.7012C45.984 50.2987 46.3783 50.1403 47.1668 50.0117C47.4391 49.9655 47.675 49.9358 47.8713 49.8978V50.0644C47.8795 50.7243 47.3401 51.1714 46.629 51.1714Z" fill="#545454"/>
<path d="M51.4867 47.9264C51.0462 47.9264 50.6833 48.1095 50.4325 48.4048V47.9792H49.8798V51.6334H50.4325V49.6619C50.4325 48.8585 50.8416 48.4724 51.4025 48.4724C51.4933 48.4724 51.5774 48.4807 51.6533 48.4955L51.7589 47.9412C51.6682 47.9346 51.5774 47.9264 51.4867 47.9264Z" fill="#545454"/>
<path d="M54.6168 50.9882C54.3892 51.1779 54.0856 51.1713 53.9652 51.0723C53.8365 50.9585 53.82 50.7836 53.82 50.4817C53.82 50.2079 53.82 49.3219 53.82 48.5334H54.5937V47.979H53.82C53.82 47.4792 53.82 47.0255 53.82 47.0255L53.2673 47.1756C53.2673 47.1756 53.2673 47.4726 53.2673 47.979H52.7064V48.5334H53.2673C53.2673 49.2988 53.2673 50.1633 53.2673 50.4966C53.2673 51.3379 53.5626 51.6332 54.0411 51.686C54.2753 51.7174 54.6399 51.6184 54.8973 51.4056L54.6168 50.9882Z" fill="#545454"/>
<path d="M57.7923 47.9264C57.3453 47.9264 56.9889 48.1095 56.7316 48.4048V47.9792H56.1855V51.6334H56.7316V49.6619C56.7316 48.8585 57.1407 48.4724 57.7016 48.4724C58.2922 48.4724 58.6337 48.8205 58.6337 49.6174C58.6337 50.17 58.6337 51.6334 58.6337 51.6334H59.1798C59.1798 51.6334 59.1798 50.8382 59.1798 49.6174C59.1798 48.2761 58.5116 47.9264 57.7923 47.9264Z" fill="#545454"/>
<path d="M62.316 47.9264C61.2783 47.9264 60.5804 48.7677 60.5804 49.8137C60.5804 50.853 61.3228 51.6862 62.3622 51.6862C63.0287 51.6862 63.5434 51.3612 63.847 50.8448L63.3702 50.6105C63.1491 50.9504 62.8159 51.1566 62.3622 51.1566C61.6792 51.1566 61.2238 50.6633 61.148 50.0034H63.9608C63.9608 49.9424 63.969 49.8747 63.969 49.8137C63.969 48.7677 63.3619 47.9264 62.316 47.9264ZM62.316 48.4576C62.9445 48.4576 63.3009 48.8816 63.4081 49.4573H61.1711C61.2849 48.8816 61.694 48.4576 62.316 48.4576Z" fill="#545454"/>
<path d="M66.9769 47.9264C66.5364 47.9264 66.1734 48.1095 65.9227 48.4048V47.9792H65.37V51.6334H65.9227V49.6619C65.9227 48.8585 66.3318 48.4724 66.8927 48.4724C66.9835 48.4724 67.0676 48.4807 67.1435 48.4955L67.2491 47.9412C67.1583 47.9346 67.0676 47.9264 66.9769 47.9264Z" fill="#545454"/>
</svg>
