<svg width="588" height="16" viewBox="0 0 588 16" fill="none" xmlns="http://www.w3.org/2000/svg">
<path d="M587.529 13.2702C588.154 13.8952 588.154 14.9076 587.529 15.5325C587.219 15.845 586.809 16 586.399 16C585.989 16 585.58 15.8438 585.268 15.5313L579.999 10.2654L574.731 15.53C574.419 15.845 574.009 16 573.6 16C573.19 16 572.781 15.845 572.469 15.53C571.844 14.9051 571.844 13.8927 572.469 13.2677L577.738 7.99813L572.469 2.73104C571.844 2.10609 571.844 1.09366 572.469 0.468713C573.094 -0.156238 574.106 -0.156238 574.731 0.468713L579.999 5.7408L585.269 0.471213C585.894 -0.153738 586.906 -0.153738 587.531 0.471213C588.156 1.09616 588.156 2.10859 587.531 2.73354L582.262 8.00312L587.529 13.2702Z" fill="black"/>
</svg>
