<svg width="582" height="16" viewBox="0 0 582 16" fill="none" xmlns="http://www.w3.org/2000/svg">
<path d="M581.529 13.2702C582.154 13.8952 582.154 14.9076 581.529 15.5325C581.219 15.845 580.809 16 580.399 16C579.989 16 579.58 15.8438 579.268 15.5313L573.999 10.2654L568.731 15.53C568.419 15.845 568.009 16 567.6 16C567.19 16 566.781 15.845 566.469 15.53C565.844 14.9051 565.844 13.8927 566.469 13.2677L571.738 7.99813L566.469 2.73104C565.844 2.10609 565.844 1.09366 566.469 0.468713C567.094 -0.156238 568.106 -0.156238 568.731 0.468713L573.999 5.7408L579.269 0.471213C579.894 -0.153738 580.906 -0.153738 581.531 0.471213C582.156 1.09616 582.156 2.10859 581.531 2.73354L576.262 8.00312L581.529 13.2702Z" fill="black"/>
</svg>
