<svg width="47" height="17" viewBox="0 0 47 17" fill="none" xmlns="http://www.w3.org/2000/svg">
<path d="M22.865 5.56946H19.9669C19.8311 5.56946 19.7254 5.61474 19.6348 5.69021C19.5443 5.76568 19.499 5.87134 19.499 6.00719C19.499 6.12795 19.5443 6.23361 19.6348 6.32417C19.7254 6.41474 19.8311 6.44493 19.9669 6.44493H22.2462C21.7933 7.0638 21.3405 7.66757 20.9179 8.25625C20.4952 8.82983 20.0575 9.43361 19.6046 10.0676C19.5292 10.1732 19.4839 10.2638 19.4839 10.4449V10.7015C19.4839 10.9129 19.7103 11.1393 19.9518 11.1393H22.8499C22.9858 11.1393 23.0914 11.094 23.1669 11.0185C23.2424 10.943 23.2877 10.8374 23.2877 10.7015C23.2877 10.5808 23.2424 10.4751 23.1669 10.3846C23.0914 10.3091 22.9858 10.2638 22.8499 10.2638H20.5405C21.0084 9.62983 21.4612 9.01097 21.8839 8.43738C22.3065 7.8638 22.7594 7.24493 23.2122 6.61097C23.2575 6.53549 23.2877 6.46002 23.2877 6.36946V6.02229C23.2877 5.90153 23.2424 5.81097 23.1669 5.7204C23.1065 5.62983 23.0009 5.56946 22.865 5.56946Z" fill="#386099"/>
<path d="M27.5443 5.67512C27.3631 5.61474 27.1971 5.56946 27.0311 5.56946H25.0235C24.8877 5.56946 24.782 5.61474 24.7065 5.69021C24.616 5.76568 24.5707 5.87134 24.5707 6.00719C24.5707 6.14304 24.616 6.2487 24.7065 6.32417C24.7971 6.41474 24.9028 6.44493 25.0235 6.44493H27.0311C27.1669 6.44493 27.2877 6.49021 27.3631 6.58078C27.4537 6.67134 27.499 6.777 27.499 6.94304C27.499 6.94304 27.5141 7.21474 27.4386 7.35059C27.4084 7.41097 27.2877 7.44116 27.1971 7.44116H26.0499C25.7933 7.44116 25.5518 7.48644 25.3254 7.577C25.099 7.66757 24.9028 7.80342 24.7216 7.98455C24.5405 8.16568 24.4197 8.34682 24.3292 8.57323C24.2386 8.78455 24.1933 9.02606 24.1933 9.28266C24.1933 9.53927 24.2386 9.78078 24.3443 10.0072C24.4348 10.2336 24.5707 10.4298 24.7367 10.5959C24.9028 10.7619 25.099 10.8978 25.3254 10.9883C25.5518 11.0789 25.7933 11.1242 26.0499 11.1242H26.5631C26.9254 11.1242 27.2424 11.0336 27.5292 10.8676C27.6046 11.0487 27.7556 11.1242 27.9669 11.1242C28.0877 11.1242 28.1933 11.0789 28.2839 11.0034C28.3594 10.9279 28.4046 10.8223 28.4046 10.6864V6.95814C28.4046 6.58078 28.2688 6.2487 28.0122 5.977C27.8763 5.84116 27.7254 5.75059 27.5443 5.67512ZM27.499 9.29776C27.499 9.58455 27.4084 9.81097 27.2122 9.9921C27.1367 10.0827 27.0311 10.1581 26.9103 10.2034C26.7896 10.2487 26.6688 10.2789 26.548 10.2789H26.0348C25.899 10.2789 25.7782 10.2487 25.6575 10.2034C25.5367 10.1581 25.4462 10.0827 25.3556 9.9921C25.265 9.90153 25.2046 9.81097 25.1594 9.69021C25.1141 9.56946 25.0839 9.4487 25.0839 9.31285C25.0839 9.04116 25.1745 8.81474 25.3556 8.63361C25.5367 8.45248 25.7631 8.36191 26.0348 8.36191H27.182C27.2424 8.36191 27.3028 8.36191 27.348 8.36191C27.3933 8.36191 27.4537 8.34682 27.499 8.33172V9.29776Z" fill="#386099"/>
<path d="M40.9782 5.56946C40.8424 5.56946 40.7367 5.61474 40.6612 5.69021C40.5858 5.76568 40.5405 5.87134 40.5405 6.00719V10.6864C40.5405 10.9732 40.6914 11.1242 40.9782 11.1242C41.2499 11.1242 41.416 10.9732 41.416 10.6864V6.00719C41.416 5.87134 41.3707 5.76568 41.2801 5.69021C41.2046 5.61474 41.1141 5.56946 40.9782 5.56946Z" fill="#386099"/>
<path d="M42.7443 6.92795C42.6386 7.19965 42.5782 7.47134 42.5782 7.77323V8.9204C42.5782 9.22229 42.6386 9.52417 42.7594 9.78078C42.8801 10.0525 43.0311 10.2789 43.2273 10.4751C43.4235 10.6713 43.665 10.8374 43.9216 10.943C44.1933 11.0487 44.4801 11.1091 44.782 11.1091H45.9443C46.065 11.1091 46.1707 11.0638 46.2612 10.9883C46.3367 10.9129 46.382 10.8072 46.382 10.6713C46.382 10.5506 46.3367 10.4449 46.2612 10.3544C46.1858 10.2789 46.0801 10.2336 45.9443 10.2336H44.782C44.6009 10.2336 44.4348 10.2034 44.2688 10.1279C44.1028 10.0525 43.9669 9.96191 43.8462 9.84116C43.7254 9.7204 43.6348 9.58455 43.5594 9.41851C43.4839 9.25248 43.4537 9.08644 43.4537 8.90531V8.72417H46.548C46.6688 8.72417 46.7896 8.67889 46.865 8.58832C46.9556 8.49776 47.0009 8.3921 47.0009 8.27134V7.75814C47.0009 7.47134 46.9405 7.18455 46.8348 6.91285C46.7141 6.64116 46.5631 6.41474 46.3669 6.20342C45.9292 5.76568 45.4009 5.55436 44.7971 5.55436C44.5103 5.55436 44.2235 5.61474 43.9518 5.7204C43.333 5.9921 42.9103 6.5204 42.7443 6.92795ZM46.1254 7.87889H43.4688V7.78832C43.4688 7.60719 43.499 7.44116 43.5745 7.29021C43.6348 7.12417 43.7405 6.98832 43.8613 6.85248C44.1179 6.59587 44.4348 6.47512 44.7971 6.47512C45.1594 6.47512 45.4763 6.61097 45.7179 6.85248C45.8386 6.97323 45.9443 7.12417 46.0046 7.29021C46.065 7.45625 46.1103 7.62229 46.1103 7.78832V7.87889H46.1254Z" fill="#386099"/>
<path d="M8.96313 0.286438C4.54049 0.286438 0.963135 3.8638 0.963135 8.28644C0.963135 12.7091 4.54049 16.2864 8.96313 16.2864C13.3858 16.2864 16.9631 12.7091 16.9631 8.28644C16.9631 3.8638 13.3858 0.286438 8.96313 0.286438ZM8.96313 14.7619C5.38578 14.7619 2.48766 11.8638 2.48766 8.28644C2.48766 4.70908 5.38578 1.81097 8.96313 1.81097C12.5405 1.81097 15.4386 4.70908 15.4386 8.28644C15.4386 11.8638 12.5405 14.7619 8.96313 14.7619Z" fill="#CCD67F"/>
<path d="M8.94804 3.3204C6.20087 3.3204 3.982 5.53927 3.982 8.28644C3.982 11.0336 6.20087 13.2525 8.94804 13.2525C11.6952 13.2525 13.9141 11.0336 13.9141 8.28644C13.9292 5.53927 11.6952 3.3204 8.94804 3.3204ZM8.94804 11.7279C7.04615 11.7279 5.50653 10.1883 5.50653 8.28644C5.50653 6.38455 7.04615 4.84493 8.94804 4.84493C10.8499 4.84493 12.3895 6.38455 12.3895 8.28644C12.4046 10.1883 10.8499 11.7279 8.94804 11.7279Z" fill="#CCD67F"/>
<path d="M10.5028 7.30531V6.02229H9.88389V6.70153L9.0688 5.94682C9.00842 5.88644 8.93295 5.88644 8.87257 5.94682L6.84993 7.8638C6.78955 7.90908 6.75936 7.99965 6.81974 8.06002H7.43861V10.143C7.43861 10.2034 7.49898 10.2638 7.57446 10.2638H10.3367C10.4122 10.2638 10.4726 10.2185 10.4726 10.143V8.06002H11.0914C11.1518 7.99965 11.1216 7.92417 11.0612 7.8638L10.5028 7.30531Z" fill="#CCD67F"/>
<path d="M33.4613 5.61474C33.2801 5.61474 33.1292 5.7204 33.0537 5.88644V5.90153C32.9179 6.2638 32.7971 6.61097 32.6763 6.94304C32.5556 7.27512 32.4499 7.5921 32.3292 7.90908C32.2084 8.22606 32.1028 8.54304 31.982 8.87512C31.8612 9.20719 31.7405 9.55436 31.6046 9.91663C31.4688 9.55436 31.348 9.1921 31.2273 8.87512C31.1065 8.54304 31.0009 8.22606 30.8801 7.90908C30.7594 7.5921 30.6537 7.27512 30.5329 6.94304C30.4122 6.62606 30.2914 6.27889 30.1556 5.90153V5.88644C30.0952 5.7204 29.9443 5.61474 29.748 5.61474C29.5065 5.61474 29.3103 5.81097 29.3103 6.05248C29.3103 6.09776 29.3254 6.15814 29.3405 6.20342L31.016 10.8374C31.0763 11.0336 31.2273 11.1242 31.4386 11.1242H31.7556C31.9669 11.1242 32.1179 11.0336 32.1782 10.8374L33.8537 6.20342C33.8688 6.15814 33.8839 6.09776 33.8839 6.05248C33.899 5.81097 33.7028 5.61474 33.4613 5.61474Z" fill="#386099"/>
<path d="M38.9405 5.61474C38.7594 5.61474 38.6084 5.7204 38.5329 5.88644V5.90153C38.3971 6.2638 38.2763 6.61097 38.1556 6.94304C38.0348 7.27512 37.9292 7.5921 37.8084 7.90908C37.6877 8.22606 37.582 8.54304 37.4613 8.87512C37.3405 9.20719 37.2197 9.55436 37.0839 9.91663C36.948 9.55436 36.8273 9.1921 36.7065 8.87512C36.5858 8.54304 36.4801 8.22606 36.3594 7.90908C36.2386 7.5921 36.1329 7.27512 36.0122 6.94304C35.8914 6.62606 35.7707 6.27889 35.6348 5.90153V5.88644C35.5745 5.7204 35.4235 5.61474 35.2273 5.61474C34.9858 5.61474 34.7896 5.81097 34.7896 6.05248C34.7896 6.09776 34.8046 6.15814 34.8197 6.20342L36.4952 10.8374C36.5556 11.0336 36.7065 11.1242 36.9179 11.1242H37.2348C37.4462 11.1242 37.5971 11.0336 37.6575 10.8374L39.3329 6.20342C39.348 6.15814 39.3631 6.09776 39.3631 6.05248C39.3782 5.81097 39.182 5.61474 38.9405 5.61474Z" fill="#386099"/>
<path d="M40.9782 5.1921C41.2867 5.1921 41.5367 4.94205 41.5367 4.63361C41.5367 4.32516 41.2867 4.07512 40.9782 4.07512C40.6698 4.07512 40.4197 4.32516 40.4197 4.63361C40.4197 4.94205 40.6698 5.1921 40.9782 5.1921Z" fill="#386099"/>
</svg>
