<svg width="93" height="33" viewBox="0 0 93 33" fill="none" xmlns="http://www.w3.org/2000/svg">
<path d="M43.8038 11.066H38.0075C37.7359 11.066 37.5245 11.1566 37.3434 11.3075C37.1623 11.4585 37.0717 11.6698 37.0717 11.9415C37.0717 12.183 37.1623 12.3943 37.3434 12.5755C37.5245 12.7566 37.7359 12.817 38.0075 12.817H42.566C41.6604 14.0547 40.7547 15.2623 39.9094 16.4396C39.0642 17.5868 38.1887 18.7943 37.283 20.0623C37.1321 20.2736 37.0415 20.4547 37.0415 20.817V21.3302C37.0415 21.7528 37.4943 22.2057 37.9774 22.2057H43.7736C44.0453 22.2057 44.2566 22.1151 44.4076 21.9642C44.5585 21.8132 44.6491 21.6019 44.6491 21.3302C44.6491 21.0887 44.5585 20.8774 44.4076 20.6962C44.2566 20.5453 44.0453 20.4547 43.7736 20.4547H39.1547C40.0906 19.1868 40.9962 17.9491 41.8415 16.8019C42.6868 15.6547 43.5925 14.417 44.4981 13.1491C44.5887 12.9981 44.6491 12.8472 44.6491 12.666V11.9717C44.6491 11.7302 44.5585 11.5491 44.4076 11.3679C44.2868 11.1868 44.0755 11.066 43.8038 11.066Z" fill="#386099"/>
<path d="M53.1623 11.2774C52.8 11.1566 52.4679 11.066 52.1359 11.066H48.1208C47.8491 11.066 47.6377 11.1566 47.4868 11.3075C47.3057 11.4585 47.2151 11.6698 47.2151 11.9415C47.2151 12.2132 47.3057 12.4245 47.4868 12.5755C47.6679 12.7566 47.8792 12.817 48.1208 12.817H52.1359C52.4076 12.817 52.6491 12.9075 52.8 13.0887C52.9811 13.2698 53.0717 13.4811 53.0717 13.8132C53.0717 13.8132 53.1019 14.3566 52.9509 14.6283C52.8906 14.7491 52.6491 14.8094 52.4679 14.8094H50.1736C49.6604 14.8094 49.1774 14.9 48.7245 15.0811C48.2717 15.2623 47.8792 15.534 47.517 15.8962C47.1547 16.2585 46.9132 16.6208 46.7321 17.0736C46.5509 17.4962 46.4604 17.9792 46.4604 18.4925C46.4604 19.0057 46.5509 19.4887 46.7623 19.9415C46.9434 20.3943 47.2151 20.7868 47.5472 21.1189C47.8792 21.4509 48.2717 21.7226 48.7245 21.9038C49.1774 22.0849 49.6604 22.1755 50.1736 22.1755H51.2C51.9245 22.1755 52.5585 21.9943 53.1321 21.6623C53.283 22.0245 53.5849 22.1755 54.0075 22.1755C54.2491 22.1755 54.4604 22.0849 54.6415 21.934C54.7925 21.783 54.883 21.5717 54.883 21.3V13.8434C54.883 13.0887 54.6113 12.4245 54.0981 11.8811C53.8264 11.6094 53.5245 11.4283 53.1623 11.2774ZM53.0717 18.5226C53.0717 19.0962 52.8906 19.5491 52.4981 19.9113C52.3472 20.0925 52.1359 20.2434 51.8943 20.334C51.6528 20.4245 51.4113 20.4849 51.1698 20.4849H50.1434C49.8717 20.4849 49.6302 20.4245 49.3887 20.334C49.1472 20.2434 48.966 20.0925 48.7849 19.9113C48.6038 19.7302 48.483 19.5491 48.3925 19.3075C48.3019 19.066 48.2415 18.8245 48.2415 18.5528C48.2415 18.0094 48.4226 17.5566 48.7849 17.1943C49.1472 16.8321 49.6 16.6509 50.1434 16.6509H52.4377C52.5585 16.6509 52.6792 16.6509 52.7698 16.6509C52.8604 16.6509 52.9811 16.6208 53.0717 16.5906V18.5226Z" fill="#386099"/>
<path d="M80.0302 11.066C79.7585 11.066 79.5472 11.1566 79.3962 11.3075C79.2453 11.4585 79.1547 11.6698 79.1547 11.9415V21.3C79.1547 21.8736 79.4566 22.1755 80.0302 22.1755C80.5736 22.1755 80.9057 21.8736 80.9057 21.3V11.9415C80.9057 11.6698 80.8151 11.4585 80.634 11.3075C80.483 11.1566 80.3019 11.066 80.0302 11.066Z" fill="#386099"/>
<path d="M83.5623 13.783C83.351 14.3264 83.2302 14.8698 83.2302 15.4736V17.7679C83.2302 18.3717 83.3509 18.9755 83.5925 19.4887C83.834 20.0321 84.1358 20.4849 84.5283 20.8774C84.9208 21.2698 85.4038 21.6019 85.917 21.8132C86.4604 22.0245 87.034 22.1453 87.6377 22.1453H89.9623C90.2038 22.1453 90.4151 22.0547 90.5962 21.9038C90.7472 21.7528 90.8377 21.5415 90.8377 21.2698C90.8377 21.0283 90.7472 20.817 90.5962 20.6358C90.4453 20.4849 90.234 20.3943 89.9623 20.3943H87.6377C87.2755 20.3943 86.9434 20.334 86.6113 20.183C86.2792 20.0321 86.0076 19.8509 85.766 19.6094C85.5245 19.3679 85.3434 19.0962 85.1925 18.7642C85.0415 18.4321 84.9811 18.1 84.9811 17.7377V17.3755H91.1698C91.4113 17.3755 91.6528 17.2849 91.8038 17.1038C91.9849 16.9226 92.0755 16.7113 92.0755 16.4698V15.4434C92.0755 14.8698 91.9547 14.2962 91.7434 13.7528C91.5019 13.2094 91.2 12.7566 90.8076 12.334C89.9321 11.4585 88.8755 11.0358 87.6679 11.0358C87.0943 11.0358 86.5208 11.1566 85.9774 11.3679C84.7396 11.9113 83.8943 12.9679 83.5623 13.783ZM90.3245 15.6849H85.0113V15.5038C85.0113 15.1415 85.0717 14.8094 85.2226 14.5075C85.3434 14.1755 85.5547 13.9038 85.7962 13.6321C86.3094 13.1189 86.9434 12.8774 87.6679 12.8774C88.3925 12.8774 89.0264 13.1491 89.5094 13.6321C89.7509 13.8736 89.9623 14.1755 90.083 14.5075C90.2038 14.8396 90.2943 15.1717 90.2943 15.5038V15.6849H90.3245Z" fill="#386099"/>
<path d="M16 0.5C7.15472 0.5 0 7.65472 0 16.5C0 25.3453 7.15472 32.5 16 32.5C24.8453 32.5 32 25.3453 32 16.5C32 7.65472 24.8453 0.5 16 0.5ZM16 29.4509C8.84528 29.4509 3.04906 23.6547 3.04906 16.5C3.04906 9.34528 8.84528 3.54906 16 3.54906C23.1547 3.54906 28.9509 9.34528 28.9509 16.5C28.9509 23.6547 23.1547 29.4509 16 29.4509Z" fill="#CCD67F"/>
<path d="M15.9698 6.56792C10.4755 6.56792 6.03774 11.0057 6.03774 16.5C6.03774 21.9943 10.4755 26.4321 15.9698 26.4321C21.4642 26.4321 25.9019 21.9943 25.9019 16.5C25.9321 11.0057 21.4642 6.56792 15.9698 6.56792ZM15.9698 23.383C12.166 23.383 9.08679 20.3038 9.08679 16.5C9.08679 12.6962 12.166 9.61698 15.9698 9.61698C19.7736 9.61698 22.8528 12.6962 22.8528 16.5C22.883 20.3038 19.7736 23.383 15.9698 23.383Z" fill="#CCD67F"/>
<path d="M19.0792 14.5377V11.9717H17.8415V13.3302L16.2113 11.8208C16.0906 11.7 15.9396 11.7 15.8189 11.8208L11.7736 15.6547C11.6528 15.7453 11.5925 15.9264 11.7132 16.0472H12.9509V20.2132C12.9509 20.334 13.0717 20.4547 13.2226 20.4547H18.7472C18.8981 20.4547 19.0189 20.3642 19.0189 20.2132V16.0472H20.2566C20.3774 15.9264 20.317 15.7755 20.1962 15.6547L19.0792 14.5377Z" fill="#CCD67F"/>
<path d="M64.9962 11.1566C64.634 11.1566 64.3321 11.3679 64.1811 11.7V11.7302C63.9094 12.4547 63.6679 13.1491 63.4264 13.8132C63.1849 14.4774 62.9736 15.1113 62.7321 15.7453C62.4906 16.3792 62.2792 17.0132 62.0377 17.6774C61.7962 18.3415 61.5547 19.0359 61.283 19.7604C61.0113 19.0359 60.7698 18.3113 60.5283 17.6774C60.2868 17.0132 60.0755 16.3792 59.834 15.7453C59.5925 15.1113 59.3811 14.4774 59.1396 13.8132C58.8981 13.1792 58.6566 12.4849 58.3849 11.7302V11.7C58.2642 11.3679 57.9623 11.1566 57.5698 11.1566C57.0868 11.1566 56.6943 11.5491 56.6943 12.0321C56.6943 12.1226 56.7245 12.2434 56.7547 12.334L60.1057 21.6019C60.2264 21.9943 60.5283 22.1755 60.9509 22.1755H61.5849C62.0075 22.1755 62.3094 21.9943 62.4302 21.6019L65.7811 12.334C65.8113 12.2434 65.8415 12.1226 65.8415 12.0321C65.8717 11.5491 65.4792 11.1566 64.9962 11.1566Z" fill="#386099"/>
<path d="M75.9547 11.1566C75.5925 11.1566 75.2906 11.3679 75.1396 11.7V11.7302C74.8679 12.4547 74.6264 13.1491 74.3849 13.8132C74.1434 14.4774 73.9321 15.1113 73.6906 15.7453C73.4491 16.3792 73.2377 17.0132 72.9962 17.6774C72.7547 18.3415 72.5132 19.0359 72.2415 19.7604C71.9698 19.0359 71.7283 18.3113 71.4868 17.6774C71.2453 17.0132 71.034 16.3792 70.7925 15.7453C70.5509 15.1113 70.3396 14.4774 70.0981 13.8132C69.8566 13.1792 69.6151 12.4849 69.3434 11.7302V11.7C69.2226 11.3679 68.9208 11.1566 68.5283 11.1566C68.0453 11.1566 67.6528 11.5491 67.6528 12.0321C67.6528 12.1226 67.683 12.2434 67.7132 12.334L71.0642 21.6019C71.1849 21.9943 71.4868 22.1755 71.9094 22.1755H72.5434C72.966 22.1755 73.2679 21.9943 73.3887 21.6019L76.7396 12.334C76.7698 12.2434 76.8 12.1226 76.8 12.0321C76.8302 11.5491 76.4377 11.1566 75.9547 11.1566Z" fill="#386099"/>
<path d="M80.0302 10.3113C80.6471 10.3113 81.1472 9.81123 81.1472 9.19434C81.1472 8.57745 80.6471 8.07736 80.0302 8.07736C79.4133 8.07736 78.9132 8.57745 78.9132 9.19434C78.9132 9.81123 79.4133 10.3113 80.0302 10.3113Z" fill="#386099"/>
</svg>
