<svg width="47" height="17" viewBox="0 0 47 17" fill="none" xmlns="http://www.w3.org/2000/svg">
<path d="M22.8645 5.56946H19.9664C19.8306 5.56946 19.7249 5.61474 19.6343 5.69021C19.5438 5.76568 19.4985 5.87134 19.4985 6.00719C19.4985 6.12795 19.5438 6.23361 19.6343 6.32417C19.7249 6.41474 19.8306 6.44493 19.9664 6.44493H22.2457C21.7928 7.0638 21.34 7.66757 20.9174 8.25625C20.4947 8.82983 20.057 9.43361 19.6042 10.0676C19.5287 10.1732 19.4834 10.2638 19.4834 10.4449V10.7015C19.4834 10.9129 19.7098 11.1393 19.9513 11.1393H22.8494C22.9853 11.1393 23.091 11.094 23.1664 11.0185C23.2419 10.943 23.2872 10.8374 23.2872 10.7015C23.2872 10.5808 23.2419 10.4751 23.1664 10.3846C23.091 10.3091 22.9853 10.2638 22.8494 10.2638H20.54C21.0079 9.62983 21.4608 9.01097 21.8834 8.43738C22.306 7.8638 22.7589 7.24493 23.2117 6.61097C23.257 6.53549 23.2872 6.46002 23.2872 6.36946V6.02229C23.2872 5.90153 23.2419 5.81097 23.1664 5.7204C23.106 5.62983 23.0004 5.56946 22.8645 5.56946Z" fill="#386099"/>
<path d="M27.5438 5.67512C27.3626 5.61474 27.1966 5.56946 27.0306 5.56946H25.023C24.8872 5.56946 24.7815 5.61474 24.706 5.69021C24.6155 5.76568 24.5702 5.87134 24.5702 6.00719C24.5702 6.14304 24.6155 6.2487 24.706 6.32417C24.7966 6.41474 24.9023 6.44493 25.023 6.44493H27.0306C27.1664 6.44493 27.2872 6.49021 27.3626 6.58078C27.4532 6.67134 27.4985 6.777 27.4985 6.94304C27.4985 6.94304 27.5136 7.21474 27.4381 7.35059C27.4079 7.41097 27.2872 7.44116 27.1966 7.44116H26.0494C25.7928 7.44116 25.5513 7.48644 25.3249 7.577C25.0985 7.66757 24.9023 7.80342 24.7211 7.98455C24.54 8.16568 24.4193 8.34682 24.3287 8.57323C24.2381 8.78455 24.1928 9.02606 24.1928 9.28266C24.1928 9.53927 24.2381 9.78078 24.3438 10.0072C24.4343 10.2336 24.5702 10.4298 24.7362 10.5959C24.9023 10.7619 25.0985 10.8978 25.3249 10.9883C25.5513 11.0789 25.7928 11.1242 26.0494 11.1242H26.5626C26.9249 11.1242 27.2419 11.0336 27.5287 10.8676C27.6042 11.0487 27.7551 11.1242 27.9664 11.1242C28.0872 11.1242 28.1928 11.0789 28.2834 11.0034C28.3589 10.9279 28.4042 10.8223 28.4042 10.6864V6.95814C28.4042 6.58078 28.2683 6.2487 28.0117 5.977C27.8759 5.84116 27.7249 5.75059 27.5438 5.67512ZM27.4985 9.29776C27.4985 9.58455 27.4079 9.81097 27.2117 9.9921C27.1362 10.0827 27.0306 10.1581 26.9098 10.2034C26.7891 10.2487 26.6683 10.2789 26.5476 10.2789H26.0343C25.8985 10.2789 25.7777 10.2487 25.657 10.2034C25.5362 10.1581 25.4457 10.0827 25.3551 9.9921C25.2645 9.90153 25.2042 9.81097 25.1589 9.69021C25.1136 9.56946 25.0834 9.4487 25.0834 9.31285C25.0834 9.04116 25.174 8.81474 25.3551 8.63361C25.5362 8.45248 25.7626 8.36191 26.0343 8.36191H27.1815C27.2419 8.36191 27.3023 8.36191 27.3476 8.36191C27.3928 8.36191 27.4532 8.34682 27.4985 8.33172V9.29776Z" fill="#386099"/>
<path d="M40.9777 5.56946C40.8419 5.56946 40.7362 5.61474 40.6608 5.69021C40.5853 5.76568 40.54 5.87134 40.54 6.00719V10.6864C40.54 10.9732 40.6909 11.1242 40.9777 11.1242C41.2494 11.1242 41.4155 10.9732 41.4155 10.6864V6.00719C41.4155 5.87134 41.3702 5.76568 41.2796 5.69021C41.2042 5.61474 41.1136 5.56946 40.9777 5.56946Z" fill="#386099"/>
<path d="M42.7438 6.92795C42.6381 7.19965 42.5777 7.47134 42.5777 7.77323V8.9204C42.5777 9.22229 42.6381 9.52417 42.7589 9.78078C42.8796 10.0525 43.0306 10.2789 43.2268 10.4751C43.423 10.6713 43.6645 10.8374 43.9211 10.943C44.1928 11.0487 44.4796 11.1091 44.7815 11.1091H45.9438C46.0645 11.1091 46.1702 11.0638 46.2608 10.9883C46.3362 10.9129 46.3815 10.8072 46.3815 10.6713C46.3815 10.5506 46.3362 10.4449 46.2608 10.3544C46.1853 10.2789 46.0796 10.2336 45.9438 10.2336H44.7815C44.6004 10.2336 44.4343 10.2034 44.2683 10.1279C44.1023 10.0525 43.9664 9.96191 43.8457 9.84116C43.7249 9.7204 43.6343 9.58455 43.5589 9.41851C43.4834 9.25248 43.4532 9.08644 43.4532 8.90531V8.72417H46.5476C46.6683 8.72417 46.7891 8.67889 46.8645 8.58832C46.9551 8.49776 47.0004 8.3921 47.0004 8.27134V7.75814C47.0004 7.47134 46.94 7.18455 46.8343 6.91285C46.7136 6.64116 46.5626 6.41474 46.3664 6.20342C45.9287 5.76568 45.4004 5.55436 44.7966 5.55436C44.5098 5.55436 44.223 5.61474 43.9513 5.7204C43.3325 5.9921 42.9098 6.5204 42.7438 6.92795ZM46.1249 7.87889H43.4683V7.78832C43.4683 7.60719 43.4985 7.44116 43.574 7.29021C43.6343 7.12417 43.74 6.98832 43.8608 6.85248C44.1174 6.59587 44.4343 6.47512 44.7966 6.47512C45.1589 6.47512 45.4759 6.61097 45.7174 6.85248C45.8381 6.97323 45.9438 7.12417 46.0042 7.29021C46.0645 7.45625 46.1098 7.62229 46.1098 7.78832V7.87889H46.1249Z" fill="#386099"/>
<path d="M8.96265 0.286438C4.54001 0.286438 0.962646 3.8638 0.962646 8.28644C0.962646 12.7091 4.54001 16.2864 8.96265 16.2864C13.3853 16.2864 16.9626 12.7091 16.9626 8.28644C16.9626 3.8638 13.3853 0.286438 8.96265 0.286438ZM8.96265 14.7619C5.38529 14.7619 2.48717 11.8638 2.48717 8.28644C2.48717 4.70908 5.38529 1.81097 8.96265 1.81097C12.54 1.81097 15.4381 4.70908 15.4381 8.28644C15.4381 11.8638 12.54 14.7619 8.96265 14.7619Z" fill="#CCD67F"/>
<path d="M8.94755 3.3204C6.20038 3.3204 3.98151 5.53927 3.98151 8.28644C3.98151 11.0336 6.20038 13.2525 8.94755 13.2525C11.6947 13.2525 13.9136 11.0336 13.9136 8.28644C13.9287 5.53927 11.6947 3.3204 8.94755 3.3204ZM8.94755 11.7279C7.04567 11.7279 5.50604 10.1883 5.50604 8.28644C5.50604 6.38455 7.04567 4.84493 8.94755 4.84493C10.8494 4.84493 12.3891 6.38455 12.3891 8.28644C12.4042 10.1883 10.8494 11.7279 8.94755 11.7279Z" fill="#CCD67F"/>
<path d="M10.5023 7.30531V6.02229H9.8834V6.70153L9.06831 5.94682C9.00793 5.88644 8.93246 5.88644 8.87208 5.94682L6.84944 7.8638C6.78906 7.90908 6.75887 7.99965 6.81925 8.06002H7.43812V10.143C7.43812 10.2034 7.4985 10.2638 7.57397 10.2638H10.3362C10.4117 10.2638 10.4721 10.2185 10.4721 10.143V8.06002H11.0909C11.1513 7.99965 11.1211 7.92417 11.0608 7.8638L10.5023 7.30531Z" fill="#CCD67F"/>
<path d="M33.4608 5.61474C33.2796 5.61474 33.1287 5.7204 33.0532 5.88644V5.90153C32.9174 6.2638 32.7966 6.61097 32.6759 6.94304C32.5551 7.27512 32.4494 7.5921 32.3287 7.90908C32.2079 8.22606 32.1023 8.54304 31.9815 8.87512C31.8608 9.20719 31.74 9.55436 31.6042 9.91663C31.4683 9.55436 31.3476 9.1921 31.2268 8.87512C31.106 8.54304 31.0004 8.22606 30.8796 7.90908C30.7589 7.5921 30.6532 7.27512 30.5325 6.94304C30.4117 6.62606 30.291 6.27889 30.1551 5.90153V5.88644C30.0947 5.7204 29.9438 5.61474 29.7476 5.61474C29.506 5.61474 29.3098 5.81097 29.3098 6.05248C29.3098 6.09776 29.3249 6.15814 29.34 6.20342L31.0155 10.8374C31.0759 11.0336 31.2268 11.1242 31.4381 11.1242H31.7551C31.9664 11.1242 32.1174 11.0336 32.1777 10.8374L33.8532 6.20342C33.8683 6.15814 33.8834 6.09776 33.8834 6.05248C33.8985 5.81097 33.7023 5.61474 33.4608 5.61474Z" fill="#386099"/>
<path d="M38.94 5.61474C38.7589 5.61474 38.6079 5.7204 38.5325 5.88644V5.90153C38.3966 6.2638 38.2759 6.61097 38.1551 6.94304C38.0343 7.27512 37.9287 7.5921 37.8079 7.90908C37.6872 8.22606 37.5815 8.54304 37.4608 8.87512C37.34 9.20719 37.2192 9.55436 37.0834 9.91663C36.9476 9.55436 36.8268 9.1921 36.706 8.87512C36.5853 8.54304 36.4796 8.22606 36.3589 7.90908C36.2381 7.5921 36.1325 7.27512 36.0117 6.94304C35.8909 6.62606 35.7702 6.27889 35.6343 5.90153V5.88644C35.574 5.7204 35.423 5.61474 35.2268 5.61474C34.9853 5.61474 34.7891 5.81097 34.7891 6.05248C34.7891 6.09776 34.8042 6.15814 34.8193 6.20342L36.4947 10.8374C36.5551 11.0336 36.706 11.1242 36.9174 11.1242H37.2343C37.4457 11.1242 37.5966 11.0336 37.657 10.8374L39.3325 6.20342C39.3476 6.15814 39.3626 6.09776 39.3626 6.05248C39.3777 5.81097 39.1815 5.61474 38.94 5.61474Z" fill="#386099"/>
<path d="M40.9777 5.1921C41.2862 5.1921 41.5362 4.94205 41.5362 4.63361C41.5362 4.32516 41.2862 4.07512 40.9777 4.07512C40.6693 4.07512 40.4193 4.32516 40.4193 4.63361C40.4193 4.94205 40.6693 5.1921 40.9777 5.1921Z" fill="#386099"/>
</svg>
